<svg id="Layer_1" enable-background="new 0 0 100 100" viewBox="0 0 100 100" xmlns="http://www.w3.org/2000/svg"><g><path d="m64.87 15.38 1.84 3.98c.17.37.53.58.91.58.14 0 .28-.03.42-.09.5-.23.72-.83.49-1.33l-1.84-3.98c-.23-.5-.83-.72-1.33-.49-.5.24-.72.83-.49 1.33z"/><path d="m67.62 15.38c.17.37.53.58.91.58.14 0 .28-.03.42-.09.5-.23.72-.83.49-1.33l-1.84-3.98c-.23-.5-.83-.72-1.33-.49s-.72.83-.49 1.33z"/><path d="m82.85 78.64h-7.07v-72.19c0-.55-.45-1-1-1h-49.56c-.55 0-1 .45-1 1v72.19h-7.07c-.55 0-1 .45-1 1v3.23c0 6.44 5.24 11.68 11.68 11.68h44.33c6.44 0 11.68-5.24 11.68-11.68v-3.23c.01-.55-.44-1-.99-1zm-20.45 0c-.55-1.13-1.79-4.34-.37-7.92.23 2.47.75 5.74 1.95 7.92zm7.06 0h-1.77c1.49-3.37 2.1-9.82 2.35-14.61 1.4 6.84-.1 12.96-.58 14.61zm.67-20.82c-.19-.43-.66-.66-1.12-.56s-.79.5-.79.97c-.02 4.36-.49 15.64-2.37 19.67-1.4-2.25-1.97-7.36-2-10.51 0-.42-.27-.8-.67-.94s-.84-.01-1.11.31c-3.78 4.67-2.72 9.52-1.83 11.87h-.64c-1.95-1.77-2.72-9.64-2.75-14.2 0-.44-.3-.83-.72-.95s-.88.05-1.12.42c-3.91 6.06-2.47 12.21-1.59 14.74h-2.42v-35.59h22.78v35.59h-2.23c.81-3.06 2.59-12.01-1.42-20.82zm-14.58 20.82c-.47-1.18-1.9-5.37-.52-10.04.24 3.22.81 7.49 2.15 10.04zm18.23-37.59h-22.78v-33.6h22.78zm-24.78-33.6v33.59h-22.78v-33.59zm-22.78 35.6h22.78v35.59h-2.45c.81-3.06 2.6-12.01-1.42-20.82-.19-.43-.66-.66-1.12-.56s-.79.5-.79.97c-.02 4.67-.56 17.27-2.79 20.41h-.27c.89-2.35 1.95-7.2-1.83-11.87-.27-.33-.71-.45-1.11-.31s-.67.51-.67.94c-.02 2.96-.53 7.66-1.75 10.08-1.37-2.87-1.94-9.15-1.96-13.03 0-.44-.3-.83-.72-.95s-.88.05-1.12.42c-3.91 6.06-2.47 12.21-1.59 14.74h-3.19zm5.33 35.59c-.47-1.18-1.9-5.37-.52-10.04.24 3.22.81 7.49 2.15 10.04zm6.46 0h-1.58c1.2-2.17 1.72-5.44 1.95-7.92 1.43 3.58.18 6.78-.37 7.92zm6.45 0h-1.77c1.49-3.37 2.1-9.82 2.35-14.61 1.4 6.84-.1 12.96-.58 14.61zm37.39 4.22c0 5.34-4.34 9.68-9.68 9.68h-44.33c-5.34 0-9.68-4.34-9.68-9.68v-2.23h63.69z"/></g></svg>